<svg id="Capa_1" enable-background="new 0 0 512 512" height="512" viewBox="0 0 512 512" width="512" xmlns="http://www.w3.org/2000/svg"><g><path d="m512 21.112-21.314-21.112-79.337 80.093c-49.246-39.113-122.121-34.695-166.502 9.688l-244.847 244.846 177.373 177.373 244.846-244.847c45.199-45.2 48.616-116.597 10.261-165.763zm-110.994 224.828-223.633 223.633-134.947-134.946 223.634-223.633c32.877-32.878 86.535-37.094 124.009-9.418l-23.716 23.942c-21.456-11.913-49.087-8.788-67.28 9.407-21.991 21.992-21.991 57.775 0 79.768 21.736 21.736 58.031 21.737 79.768 0 18.442-18.443 21.41-46.582 8.919-68.156l23.366-23.588c26.685 37.255 23.325 89.546-10.12 122.991zm-43.379-52.461c-10.178 10.178-27.163 10.178-37.342 0-10.295-10.295-10.295-27.047 0-37.342s27.047-10.295 37.342 0 10.295 27.048 0 37.342z"/><path d="m285.531 249.446-21.213-21.213-17.677 17.677c-17.545-17.545-46.095-17.544-63.64 0-17.546 17.545-17.546 46.094 0 63.64l21.214 21.213c13.367 13.896-7.531 34.896-21.214 21.213l-42.427-42.427-21.213 21.213 21.214 21.214-17.677 17.677 21.213 21.213 17.677-17.677c17.311 17.317 46.324 17.316 63.64 0 17.546-17.545 17.546-46.094 0-63.64l-21.214-21.213c-5.848-5.849-5.848-15.365 0-21.213 5.85-5.849 15.366-5.849 21.214 0l42.427 42.427 21.213-21.213-21.214-21.214z"/></g></svg>